<svg xmlns="http://www.w3.org/2000/svg" xmlns:xlink="http://www.w3.org/1999/xlink" width="840.5" height="735.953" viewBox="0 0 840.5 735.953">
  <defs>
    <linearGradient id="linear-gradient" x1="0.116" y1="0.207" x2="0.87" y2="0.803" gradientUnits="objectBoundingBox">
      <stop offset="0" stop-color="#ff512f"/>
      <stop offset="1" stop-color="#dd2476"/>
    </linearGradient>
  </defs>
  <g id="LightMode" transform="translate(0 0)">
    <rect id="Rectangle_23" data-name="Rectangle 23" width="840.5" height="2" transform="translate(0 728.492)" fill="#3f3d56"/>
    <path id="Path_25" data-name="Path 25" d="M977.787,333.217V526.4H475.407V333.217A251.177,251.177,0,0,1,712.1,82.437q7.185-.42,14.5-.41c2.77,0,5.54.04,8.28.14a250.354,250.354,0,0,1,169.33,73.43c1.36,1.36,2.69,2.73,4.03,4.11a253.06,253.06,0,0,1,19.32,22.79,250.056,250.056,0,0,1,50.23,150.72Z" transform="translate(-179.75 -82.024)" fill="#e6e6e6"/>
    <path id="Path_26" data-name="Path 26" d="M734.88,82.169V526.395H712.092V82.438q7.194-.419,14.5-.414C729.37,82.023,732.136,82.065,734.88,82.169Z" transform="translate(-179.75 -82.024)" fill="#161616"/>
    <path id="Path_27" data-name="Path 27" d="M927.555,182.5H525.633a251.953,251.953,0,0,1,19.318-22.788H908.237A251.926,251.926,0,0,1,927.555,182.5Z" transform="translate(-179.75 -82.024)" fill="#161616"/>
    <rect id="Rectangle_24" data-name="Rectangle 24" width="178.05" height="278.64" transform="translate(581.747 165.733)" fill="#fff"/>
    <rect id="Rectangle_25" data-name="Rectangle 25" width="26.932" height="26.932" transform="translate(612.793 216.656)" fill="#e6e6e6"/>
    <rect id="Rectangle_26" data-name="Rectangle 26" width="26.932" height="26.932" transform="translate(656.184 216.656)" fill="#e6e6e6"/>
    <rect id="Rectangle_27" data-name="Rectangle 27" width="26.932" height="26.932" transform="translate(699.574 216.656)" fill="#e6e6e6"/>
    <rect id="Rectangle_28" data-name="Rectangle 28" width="26.932" height="26.932" transform="translate(613.541 278.001)" fill="#e6e6e6"/>
    <rect id="Rectangle_29" data-name="Rectangle 29" width="26.932" height="26.932" transform="translate(656.932 278.001)" fill="#e6e6e6"/>
    <rect id="Rectangle_30" data-name="Rectangle 30" width="26.932" height="26.932" transform="translate(700.322 278.001)" fill="#e6e6e6"/>
    <rect id="Rectangle_31" data-name="Rectangle 31" width="26.932" height="26.932" transform="translate(614.289 339.347)" fill="#e6e6e6"/>
    <rect id="Rectangle_32" data-name="Rectangle 32" width="26.932" height="26.932" transform="translate(657.68 339.347)" fill="#e6e6e6"/>
    <rect id="Rectangle_33" data-name="Rectangle 33" width="26.932" height="26.932" transform="translate(701.07 339.347)" fill="#e6e6e6"/>
    <rect id="Rectangle_34" data-name="Rectangle 34" width="26.932" height="26.932" transform="translate(615.037 400.692)" fill="#e6e6e6"/>
    <rect id="Rectangle_35" data-name="Rectangle 35" width="26.932" height="26.932" transform="translate(658.428 400.692)" fill="#e6e6e6"/>
    <rect id="Rectangle_36" data-name="Rectangle 36" width="26.932" height="26.932" transform="translate(701.819 400.692)" fill="#e6e6e6"/>
    <rect id="Rectangle_37" data-name="Rectangle 37" width="26.932" height="26.932" transform="translate(615.037 400.692)" fill="#e6e6e6"/>
    <rect id="Rectangle_38" data-name="Rectangle 38" width="26.932" height="26.932" transform="translate(658.428 400.692)" fill="#e6e6e6"/>
    <rect id="Rectangle_39" data-name="Rectangle 39" width="26.932" height="26.932" transform="translate(701.819 400.692)" fill="#e6e6e6"/>
    <circle id="Ellipse_10" data-name="Ellipse 10" cx="37.119" cy="37.119" r="37.119" transform="translate(318.253 308.843)" fill="url(#linear-gradient)"/>
    <path id="Path_28" data-name="Path 28" d="M357.287,444.373h-3.62l1.13-61.3.68-37.11h.1l.65,37.11.36,21.11.04,2.05Z" fill="#fff"/>
    <rect id="Rectangle_40" data-name="Rectangle 40" width="1.836" height="6.934" transform="translate(361.377 401.661) rotate(62.234)" fill="#fff"/>
    <circle id="Ellipse_11" data-name="Ellipse 11" cx="56.446" cy="56.446" r="56.446" transform="translate(408.056 234.72)" fill="url(#linear-gradient)"/>
    <path id="Path_29" data-name="Path 29" d="M467.487,444.373h-5.65l1.17-63.61.61-33.16,1.04-56.44h.16l.98,56.43.56,32.11.06,3.12Z" fill="#fff"/>
    <rect id="Rectangle_41" data-name="Rectangle 41" width="2.791" height="10.545" transform="translate(473.633 375.867) rotate(62.234)" fill="#fff"/>
    <path id="Path_30" data-name="Path 30" d="M527.829,319.29l9.536-7.627c-7.408-.817-10.451,3.223-11.7,6.42-5.787-2.4-12.087.746-12.087.746l19.079,6.926a14.438,14.438,0,0,0-4.83-6.466Z" transform="translate(-179.75 -82.024)" fill="url(#linear-gradient)"/>
    <path id="Path_31" data-name="Path 31" d="M628.3,257.14l9.536-7.627c-7.408-.817-10.451,3.223-11.7,6.42-5.787-2.4-12.087.746-12.087.746l19.079,6.926a14.438,14.438,0,0,0-4.83-6.466Z" transform="translate(-179.75 -82.024)" fill="url(#linear-gradient)"/>
    <path id="Path_32" data-name="Path 32" d="M589.979,316.183l9.536-7.627c-7.408-.817-10.451,3.223-11.7,6.42-5.787-2.4-12.087.746-12.087.746l19.079,6.926a14.438,14.438,0,0,0-4.83-6.466Z" transform="translate(-179.75 -82.024)" fill="url(#linear-gradient)"/>
    <path id="Path_33" data-name="Path 33" d="M325.545,370.514s22.962,4.917,26.391,2.632a6.45,6.45,0,0,1,6.856,0c19.426-7.428-.178-30.079-.749-39.221s-12-21.711-12-21.711Z" transform="translate(-179.75 -82.024)" fill="#2f2e41"/>
    <path id="Path_34" data-name="Path 34" d="M304.726,349.151c0,12.528-25.057,40.091-25.057,40.091l47.608,73.918s18.793-75.171,7.517-78.929,1.253-21.3,1.253-21.3Z" transform="translate(-179.75 -82.024)" fill="#a0616a"/>
    <path id="Path_35" data-name="Path 35" d="M249.6,473.183l33.827,21.3-8.77,13.781s-7.517-6.264-7.517-7.517-50.114-25.057-55.125-28.815,11.276-20.046,11.276-20.046Z" transform="translate(-179.75 -82.024)" fill="#a0616a"/>
    <path id="Path_36" data-name="Path 36" d="M384.462,471.513s-33.381,21.715-34.634,24.22,8.77,31.321,15.177,30.22-.143-21.45-.143-21.45,30.068-23.8,40.091-32.574-2.506-28.815-2.506-28.815Z" transform="translate(-179.75 -82.024)" fill="#a0616a"/>
    <path id="Path_37" data-name="Path 37" d="M217.932,674.792l7.561,27.432,17.977-.749-9.252-34.2Z" fill="#a0616a"/>
    <path id="Path_38" data-name="Path 38" d="M106.183,669.291l6.264,27.562h12.529V669.291Z" fill="#a0616a"/>
    <circle id="Ellipse_12" data-name="Ellipse 12" cx="27.563" cy="27.563" r="27.563" transform="translate(119.964 233.3)" fill="#a0616a"/>
    <path id="Path_39" data-name="Path 39" d="M287.1,380.473s-3.676,5.011-17.457,8.769-52.62,40.091-53.872,66.4,32.574,18.793,32.574,18.793,31.321,5.011,31.321,6.264-1.253,8.77-1.253,8.77c-20.046,25.057-22.551,67.654-22.551,67.654S243.336,743.8,245.842,758.831s62.642,6.264,62.642,6.264l2.506-167.882s25.057,150.342,30.068,162.87,76.424-3.759,76.424-3.759S358.6,507.009,358.6,490.722s18.793-20.046,18.793-20.046,20.046,3.759,21.3-3.759,8.77-18.793,8.77-18.793-15.034-32.574-28.815-50.114-43.849-13.781-43.849-13.781l-16.287,56.378Z" transform="translate(-179.75 -82.024)" fill="#2f2e41"/>
    <path id="Path_40" data-name="Path 40" d="M402.434,775.841s-2.584,27.877-2.506,31.838c.07,3.535,25.07,4.508,27.576.749s11.276,0,11.276,2.506,25.057.736,25.057.736c32.574-15.034-4.662-19.182-4.662-19.182s-22.187-10.474-32.209-14.232-5.992-1.5-5.992-1.5C418.467,785.527,402.434,775.841,402.434,775.841Z" transform="translate(-179.75 -82.024)" fill="#2f2e41"/>
    <path id="Path_41" data-name="Path 41" d="M282.174,802.681c-1.253,1.253,2.506,17.54,20.046,15.034s12.529-21.3,12.529-23.8-2.506-21.3-3.759-26.31-22.551,3.759-22.551,3.759S283.427,801.428,282.174,802.681Z" transform="translate(-179.75 -82.024)" fill="#2f2e41"/>
    <path id="Path_42" data-name="Path 42" d="M349.443,317.355a93.131,93.131,0,0,0-2.857,12c-.571,4.571-11.427,5.714-11.427,5.714,1.143,0,1.143-6.856,1.143-6.856,0,4-6.285,8-6.285,8a67.492,67.492,0,0,0-15.427,12.57c-8,8.57,2.285,9.713,2.285,9.713-.771,13.773-28.968,19.356-28.968,19.356-32.567-11.427-7.757-50.526-7.757-50.526,24.568-45.708,44.439-25.68,44.439-25.68C346.015,298.5,349.443,317.355,349.443,317.355Z" transform="translate(-179.75 -82.024)" fill="#2f2e41"/>
  </g>
</svg>
